<?xml version="1.0"?>
<svg xmlns="http://www.w3.org/2000/svg" xmlns:xlink="http://www.w3.org/1999/xlink" xmlns:svgjs="http://svgjs.com/svgjs" version="1.1" width="512" height="512" x="0" y="0" viewBox="0 0 512 512" style="enable-background:new 0 0 512 512" xml:space="preserve"><g><path xmlns="http://www.w3.org/2000/svg" d="M499.31,72.72l-88-40a7.968,7.968,0,0,0-6.62,0l-88,40A7.988,7.988,0,0,0,312,80V224a8,8,0,0,0,8,8h88v40H104V232h88a8,8,0,0,0,8-8V80a7.988,7.988,0,0,0-4.69-7.28l-88-40a7.968,7.968,0,0,0-6.62,0l-88,40A7.988,7.988,0,0,0,8,80V224a8,8,0,0,0,8,8H88v48a8,8,0,0,0,8,8H248v56H224a8,8,0,0,0-8,8v16H176a8.009,8.009,0,0,0-6.4,3.2l-24,32A7.982,7.982,0,0,0,144,408v48a8,8,0,0,0,8,8h17.38a23.99,23.99,0,0,0,45.24,0h50.76a23.99,23.99,0,0,0,45.24,0H328a8,8,0,0,0,8-8V352a8,8,0,0,0-8-8H264V288H416a8,8,0,0,0,8-8V232h72a8,8,0,0,0,8-8V80A7.988,7.988,0,0,0,499.31,72.72ZM160,128H48v-8H160ZM32,112V216H24V85.15l80-36.36,80,36.36V216h-8V112a8,8,0,0,0-8-8H40A8,8,0,0,0,32,112ZM64,216H48V200H64ZM48,184V144H160v72H112V192a8,8,0,0,0-8-8Zm48,32H80V200H96Zm64,194.67,2-2.67h22v8H160ZM192,464a8,8,0,1,1,8-8A8.011,8.011,0,0,1,192,464Zm24-16h-1.38a23.99,23.99,0,0,0-45.24,0H160V432h32a8,8,0,0,0,8-8V400a8,8,0,0,0-8-8H174l6-8h36Zm72,16a8,8,0,1,1,8-8A8.011,8.011,0,0,1,288,464Zm32-16h-9.38a23.99,23.99,0,0,0-45.24,0H232V424h88Zm0-88v48H232V360Zm48-144H352V200h16Zm32,0H384V200h16Zm64,0H416V192a8,8,0,0,0-8-8H352V144H464Zm0-88H352v-8H464Zm24,88h-8V112a8,8,0,0,0-8-8H344a8,8,0,0,0-8,8V216h-8V85.15l80-36.36,80,36.36Z" fill="#ffffff" data-original="#000000" style=""/></g></svg>
